<?xml version="1.0" encoding="UTF-8"?><svg id="Layer_2" xmlns="http://www.w3.org/2000/svg" viewBox="0 0 831.47 358.98"><defs><style>.cls-1{fill:#231f20;stroke:#231f20;stroke-miterlimit:10;stroke-width:6.96px;}</style></defs><g id="Layer_1-2"><path class="cls-1" d="M6.49,161.6c7.66,0,28.58,4.5,40.97,4.5,10.14,0,12.97-12.84,13.24-21.85l3.75-124.11c.2-7.66-5.34-13.52-10.97-13.52-14.19,0-30.05,5.86-39.41,6.08-8.01.22-11.99-9.24-4.11-9.24,20.95,0,47.85,2.25,66.77,2.25,2.7,0,5.78,1.36,6.51,4.51.83,3.38,4.31,11.71,8.77,20.72l56.48,114.2c2.53,5.17,6.33,5.63,8.24,1.8,22.51-47.08,46.92-91.9,72.79-134.47,3.2-4.96,6.78-6.53,12.63-6.53,38.29,0,47.7-1.12,65.04-1.12,6.31,0,9.29,9.23,3.66,9.23-11.48,0-31.84-6.76-45.35-6.76-7.88,0-8.73,7.2-8.85,13.51l-3.79,133.12c-.19,7.66,5.34,13.51,12.77,13.51,10.81,0,28.03-5.86,37.39-6.08,8.01-.22,11.99,9.23,4.11,9.23-19.92-.22-47.18-2.25-65.42-2.25-26.13,0-38.88.68-61.76.9-5.4,0-9.54-8.78-3.36-8.56,13.81.68,31.86,6.3,48.07,6.3,7.89,0,8.73-7.2,8.85-13.51l3.77-130.65c.12-6.31-6.44-9.91-8.96-4.95l-74.44,137.85c-4.5,8.11-13.06,6.09-17.92-3.83L71.95,21.27c-2.23-4.51-5.81-4.95-5.83-.45.16,42.34-.98,83.79-3.63,123.88-.64,9.69,8.5,21.62,17.96,21.62,18.92,0,33.48-4.73,39.47-4.95,8.01-.22,14.25,9.23,4.11,9.23-18.69,0-38.32-3.6-61.29-3.6-21.4,0-43.12,3.83-52.13,3.83-6.98,0-9.74-9.23-4.11-9.23Z"/><path class="cls-1" d="M327.17,153.63c-2.26-5.08-3.28-11.62-3.18-17.59l.34-16.86c.23-13.52-1.95-17.44-6.09-17.59-3.78,0-15.79,4.36-24.07,4.36-1.6,0-3.42-1.16-4.14-2.76-.77-1.74-.18-3.35,1.92-3.2,9.88,1.3,25.86,1.3,34.29,0,4.97-.58,8.9,3.34,8.85,8.13l.06,30.82c0,15.98.76,19.33,2.59,23.11,2.48,5.23,8.82,8.72,15.65,8.72,13.37,0,16.57-10.76,20.08-17.88,1.74-3.92,9.4.88,7.06,5.09-3.87,6.98-13.61,13.81-26.69,13.81-11.62,0-22.84-8.86-26.69-18.17ZM323.82,75.29c-1.22-4.36,1.01-7.85,4.93-7.85,4.22,0,8.12,2.91,9.34,7.27,1.22,4.36-.78,7.71-4.85,7.71s-8.27-2.91-9.42-7.12Z"/><path class="cls-1" d="M381.86,146.22c-10.81-24.27,8.99-48.98,27.45-48.98,10.32,0,22.17,6.39,26.57,16.28,3.04,6.83.69,11.34-3.38,11.34-3.48,0-7.41-2.62-8.91-5.96-2.33-5.23,2.65-7.12.71-11.48-2.59-5.81-8.29-9.15-14.54-9.15-19.33,0-25.01,34.88-15.82,55.52,4.27,9.59,14.69,17,25.44,17,14.75-.14,24.18-7.7,28.86-24.27,1.27-4.65,9.83-.44,8,5.23-4.06,13.08-19.69,20.06-36.4,20.06-15.84,0-31.38-10.75-37.98-25.58Z"/><path class="cls-1" d="M518.55,154.21c-7.12-15.98,9.26-28.49,1.36-46.22-2.78-6.25-8.26-9.73-14.07-9.73-14.09,0-27.64,15.26-26.83,52.32l.24,15.56c.09,6.39-11.52,3.49-11.37-4.65l.93-42.3-.35-37.35c-.13-13.66-1.96-17.44-6.09-17.59-4.07,0-16.87,4.22-25.59,4.22-1.6,0-3.36-1.02-4.14-2.76-.71-1.6-.12-3.2,1.92-3.2,10.46,1.31,26.88,1.31,35.75,0,5.03-.44,9.04,3.34,8.92,8.28l.05,8.28c-.15,12.06-1.09,25.29-2.48,40.12-.08,1.46,1.48,2.03,1.91,1.02,4.85-12.93,13.31-22.96,26.68-22.96,10.61,0,21,7.99,24.94,16.86,8.8,19.76-8.74,29.65-1.3,46.36,3.17,7.13,8.81,10.32,15.49,10.32,10.46,0,16.68-11.48,19.19-18.9,1.64-4.8,8.86,0,7.38,4.51-2.03,5.23-12.02,15.41-26.12,15.41-12.06,0-22.1-7.85-26.43-17.59Z"/><path class="cls-1" d="M571.4,144.91c-10.61-23.84,10.89-47.67,30.07-47.67,8.14,0,17.38,3.78,24.12,10.75,1.99,2.18,4.49,1.6,4.18-.72l-.42-6.83c-.52-6.4,11.17-3.64,11.08,3.35l-1.09,41.27c.02,6.25-.1,11.19,2.49,17.01,2.47,5.23,7.81,8.72,13.76,8.72,11.92,0,16.68-11.48,19.2-18.9,1.79-4.8,9.01,0,7.38,4.51-1.88,5.23-10.57,15.41-26.12,15.41-9.45,0-19.1-6.97-23.82-14.97-.9-.73-2.15-.58-2.55.14-4.27,9.01-10.83,14.82-20.43,14.82-14.67,0-31.43-12.5-37.84-26.89ZM626.65,117.58c-5.76-12.94-16.3-19.33-24.73-19.33-19.03,0-26.64,34.16-17.13,55.52,4.27,9.59,14.11,17,23.99,17,19.61,0,26.6-33.57,17.87-53.2Z"/><path class="cls-1" d="M682.88,146.22c-10.81-24.27,10.31-48.98,29.49-48.98,10.17,0,21.04,7.12,24.99,15.99,6.92,15.55-13.52,28.05-36.49,28.05-6.97,0-8.87,4.22-5.18,12.51,4.27,9.59,14.69,17,25.45,17,15.05-.14,24.67-7.56,29.44-24.27,1.42-4.65,9.83-.44,8.14,5.23-3.99,13.23-20.27,20.06-37.12,20.06s-32.11-10.75-38.71-25.58ZM726.05,107.41c-2.59-5.81-7.71-9.15-13.23-9.15-12.64,0-22,17.15-21.51,33.28.18,4.66,3.89,8.72,9.12,8.72,19.47,0,31.71-19.18,25.62-32.84Z"/><path class="cls-1" d="M774.41,153.63c-2.26-5.08-3.37-11.48-3.18-17.59l1.87-54.22c-.12-13.66-1.95-17.44-5.94-17.59-3.93,0-16,4.22-24.28,4.22-1.6,0-3.36-1.02-4.14-2.76-.71-1.6-.12-3.2,1.92-3.2,10.03,1.31,25.87,1.31,34.44,0,5.03-.44,9.04,3.34,8.92,8.28l-1.47,68.17c.71,16.28,1.05,19.33,2.88,23.11,2.47,5.23,8.53,8.72,15.22,8.72,13.23,0,16.34-10.61,19.79-17.88,1.88-3.92,9.54.88,7.06,5.09-3.87,6.98-13.33,13.81-26.4,13.81-11.62,0-22.84-8.86-26.69-18.17Z"/><path class="cls-1" d="M354.65,331.85c-7.92-17.79,2.56-28.15-2.86-40.32-7.12-15.99-34.48-24.33-64.49-23.43l-22.22.68c-10.94.23-17.02,4.28-17.18,11.49l-1.26,55.87c-.14,10.81,5.39,12.61,10.57,12.61,28.83,0,46.44-4.96,56.7-5.18,8.01-.22,12,9.24,4.11,9.24-25.33-.22-50.96-3.16-81.81-3.16-24.1,0-50.1,1.8-59.56,1.8-6.3,0-9.29-9.23-3.66-9.23,9.91,0,29.61,6.3,46.05,6.3,7.89,0,8.13-6.53,8.25-12.83l3.92-133.35c.37-10.81-5.39-12.61-10.57-12.61-20.5,0-30.23,4.96-39.59,5.18-8.01.22-11.99-9.24-4.11-9.24,19.92.22,40.47,3.38,64.79,3.38,21.85,0,44.97-.68,54.43-.68,42.12,0,71.33,11.49,80.16,31.31,9.73,21.85-8.95,36.04-49.26,44.15-6.83,1.35-4.85,6.3,3.21,9.23,20.1,7.21,34.73,15.77,39.74,27.04,6.12,13.74-1.38,31.31,2.73,40.54,5.01,11.26,14.48,13.29,20.33,13.29,18.47,0,25.86-17.8,29.76-29.28,2.77-7.44,13.96,0,11.44,6.98-2.92,8.12-16.4,23.88-40.5,23.88-15.31,0-32.11-7.89-39.13-23.66ZM325.79,262.48c31.42-6.3,40.37-23.65,30.64-45.5-7.72-17.35-25.55-27.03-60.46-27.03-13.51,0-27.4.68-38.71,1.58-7.59.67-6.58,4.95-6.7,11.26l-1.46,53.39c-.17,7.2,5.57,11.49,15.38,11.26l22.22-.68c15.11-.45,29.4-2.25,39.09-4.28Z"/><path class="cls-1" d="M410.76,241.83c-10.61-23.84,10.89-47.67,30.07-47.67,8.14,0,17.38,3.78,24.12,10.75,1.99,2.18,4.49,1.6,4.18-.73l-.43-6.83c-.52-6.4,11.17-3.63,11.08,3.35l-1.1,41.27c.02,6.25-.1,11.19,2.49,17.01,2.47,5.23,7.81,8.72,13.76,8.72,11.92,0,16.68-11.48,19.19-18.9,1.79-4.8,9.01,0,7.38,4.51-1.88,5.23-10.57,15.41-26.12,15.41-9.45,0-19.09-6.98-23.81-14.97-.91-.73-2.15-.58-2.55.14-4.27,9.01-10.84,14.82-20.43,14.82-14.67,0-31.43-12.5-37.83-26.89ZM466.01,214.5c-5.76-12.93-16.3-19.33-24.73-19.33-19.03,0-26.64,34.16-17.13,55.52,4.27,9.59,14.11,17,23.99,17,19.62,0,26.61-33.57,17.87-53.2Z"/><path class="cls-1" d="M534.01,282.96c-3.23-7.27-.87-15.99,4.8-15.99,7.85,0,12.43,10.61,6.75,12.21-3.33,1.02-9.39,1.75-6.94,7.27,3.1,6.98,14.29,15.11,27.22,15.11,21.94,0,24.37-20.64,24.4-47.67.1-.43-.68-.88-.92-.43-6.03,9.3-15.87,15.26-28.52,15.26-11.48,0-22.56-8.58-26.83-18.17-1.75-3.92-2.6-8.14-2.51-12.5l.4-21.95c.31-13.66-1.95-17.44-6.09-17.59-3.78,0-15.78,4.36-24.07,4.36-1.74,0-3.42-1.16-4.14-2.76-.77-1.75-.32-3.35,1.92-3.2,9.88,1.3,25.86,1.3,34.29,0,4.97-.58,8.9,3.34,8.85,8.14l-.03,36.49c-.04,6.11,1.12,11.34,2.94,15.41,3.1,6.98,8.86,10.75,14.82,10.75,14.82,0,30.1-14.97,29.62-51.6-.04-13.81-1.95-17.44-6.09-17.59-3.34,0-13.89,4.36-21.31,4.36-1.74,0-3.42-1.16-4.13-2.76-.77-1.75-.33-3.35,1.92-3.2,9.09,1.16,23.76,1.16,31.53,0,4.97-.58,9.04,3.34,8.85,8.14l-.84,52.62c.52,33.14-13.42,44.91-33.62,44.91-13.52,0-26.91-7.55-32.28-19.62Z"/></g></svg>